<svg width="48" height="48" viewBox="0 0 48 48" fill="none" xmlns="http://www.w3.org/2000/svg">
  <!-- Message bubble background in dark purple (made bigger) -->
  <path d="M4 10C4 7.23858 6.23858 5 9 5H39C41.7614 5 44 7.23858 44 10V28C44 30.7614 41.7614 33 39 33H17L8 40V33H9C6.23858 33 4 30.7614 4 28V10Z" fill="#4C1D95" stroke="#7C3AED" stroke-width="2.5" stroke-linejoin="round"/>
  
  <!-- Lightning strike in bright yellow (made bigger) -->
  <path d="M28 2L16 22H23L19 38L31 18H24L28 2Z" fill="#FDE047"/>
  
  <!-- Lightning glow effect (made bigger) -->
  <path d="M28 2L16 22H23L19 38L31 18H24L28 2Z" fill="none" stroke="#FACC15" stroke-width="1.5" opacity="0.8"/>
</svg>